<svg width="20" height="21" viewBox="0 0 20 21" fill="none" xmlns="http://www.w3.org/2000/svg">
<g id="Group 1000004715">
<path id="Vector" d="M19.9999 5.49998V20.4999H15.442C15.4864 20.1015 15.5084 19.7009 15.508 19.2999C15.508 15.614 13.746 12.832 11.41 12.832C9.07397 12.832 7.31198 15.608 7.31198 19.2999C7.31154 19.7009 7.33357 20.1015 7.37798 20.4999H4.77799C4.73872 20.1012 4.71936 19.7007 4.71999 19.2999C4.71999 14.286 7.71998 10.208 11.404 10.208C13.314 10.208 15.142 11.34 16.4219 13.312L18.4599 11.99C16.7319 9.29997 14.16 7.77198 11.41 7.77198C8.91197 7.77198 6.58598 9.01197 4.85799 11.266C3.19999 13.424 2.29399 16.276 2.29399 19.2999C2.29399 19.6999 2.31199 20.0999 2.34399 20.4999H0V12.386L0.156 12.186C0.755998 11.434 1.282 10.626 1.80199 9.84197C3.14799 7.80398 4.42399 5.87798 6.52598 5.04199L5.63198 2.78199C2.95999 3.85199 1.43 6.01398 0 8.16598V0.5H15L19.9999 5.49998Z" fill="#F9F9F9"/>
<path id="Vector_2" d="M13.0782 19.2997C13.0785 19.7013 13.0491 20.1024 12.9902 20.4997H9.83019C9.77128 20.1024 9.74187 19.7013 9.74219 19.2997C9.74219 16.8737 10.7422 15.2637 11.4102 15.2637C12.0782 15.2637 13.0782 16.8677 13.0782 19.2997Z" fill="#F9F9F9"/>
</g>
</svg>
