<svg width="46" height="46" viewBox="0 0 46 46" fill="none" xmlns="http://www.w3.org/2000/svg">
<g filter="url(#filter0_d_124_11382)">
<path d="M6 2H34.9999C37.7614 2 39.9999 4.23858 39.9999 7V36H6V2Z" fill="#094ED9" shape-rendering="crispEdges"/>
<path d="M6 1H5V2V36V37H6H39.9999H40.9999V36V7C40.9999 3.68629 38.3136 1 34.9999 1H6Z" stroke="#094ED9" stroke-width="2" shape-rendering="crispEdges"/>
<path d="M32.9999 14V28.9999H28.442C28.4864 28.6015 28.5084 28.2009 28.508 27.7999C28.508 24.114 26.746 21.332 24.41 21.332C22.074 21.332 20.312 24.108 20.312 27.7999C20.3115 28.2009 20.3336 28.6015 20.378 28.9999H17.778C17.7387 28.6012 17.7194 28.2007 17.72 27.7999C17.72 22.786 20.72 18.708 24.404 18.708C26.314 18.708 28.142 19.84 29.4219 21.812L31.4599 20.49C29.7319 17.8 27.16 16.272 24.41 16.272C21.912 16.272 19.586 17.512 17.858 19.766C16.2 21.924 15.294 24.776 15.294 27.7999C15.294 28.1999 15.312 28.5999 15.344 28.9999H13V20.886L13.156 20.686C13.756 19.934 14.282 19.126 14.802 18.342C16.148 16.304 17.424 14.378 19.526 13.542L18.632 11.282C15.96 12.352 14.43 14.514 13 16.666V9H28L32.9999 14Z" fill="#F9F9F9"/>
<path d="M26.0782 27.8016C26.0785 28.2032 26.0491 28.6043 25.9902 29.0016H22.8302C22.7713 28.6043 22.7419 28.2032 22.7422 27.8016C22.7422 25.3756 23.7422 23.7656 24.4102 23.7656C25.0782 23.7656 26.0782 25.3696 26.0782 27.8016Z" fill="#F9F9F9"/>
</g>
<defs>
<filter id="filter0_d_124_11382" x="0" y="0" width="46" height="46" filterUnits="userSpaceOnUse" color-interpolation-filters="sRGB">
<feFlood flood-opacity="0" result="BackgroundImageFix"/>
<feColorMatrix in="SourceAlpha" type="matrix" values="0 0 0 0 0 0 0 0 0 0 0 0 0 0 0 0 0 0 127 0" result="hardAlpha"/>
<feOffset dy="4"/>
<feGaussianBlur stdDeviation="2"/>
<feComposite in2="hardAlpha" operator="out"/>
<feColorMatrix type="matrix" values="0 0 0 0 0.192157 0 0 0 0 0.0352941 0 0 0 0 0.847059 0 0 0 0.1 0"/>
<feBlend mode="normal" in2="BackgroundImageFix" result="effect1_dropShadow_124_11382"/>
<feBlend mode="normal" in="SourceGraphic" in2="effect1_dropShadow_124_11382" result="shape"/>
</filter>
</defs>
</svg>
