<svg width="20" height="20" viewBox="0 0 20 20" fill="none" xmlns="http://www.w3.org/2000/svg">
<path id="Vector" d="M18.536 1.464C18.0716 0.999736 17.5203 0.631492 16.9136 0.380298C16.3069 0.129103 15.6567 -0.000122335 15 8.69007e-08H5C3.67392 8.69007e-08 2.40215 0.526784 1.46447 1.46447C0.526783 2.40215 0 3.67392 0 5V20H20V5C20.0001 4.34334 19.8709 3.6931 19.6197 3.08639C19.3685 2.47968 19.0003 1.92839 18.536 1.464ZM5 17.5H2.5V15H5V17.5ZM8.784 12.082H2.306V6.482C2.30491 5.97585 2.39572 5.47371 2.574 5C2.7718 4.47992 3.07023 4.00395 3.45219 3.59934C3.83416 3.19472 4.29216 2.8694 4.8 2.642C4.87 2.61 4.94 2.582 5.01 2.554C5.4928 2.36691 6.00621 2.27128 6.524 2.272H8.794L8.784 12.082ZM17.556 17.5H15.056V15H17.556V17.5ZM17.694 12.082H11.214V2.282H13.484C14.0018 2.27844 14.5158 2.37066 15 2.554C15.07 2.582 15.138 2.61 15.2 2.642C15.7076 2.86934 16.1654 3.19466 16.5471 3.5993C16.9287 4.00394 17.2267 4.47994 17.424 5C17.603 5.47358 17.6944 5.97573 17.694 6.482V12.082Z" fill="#F9F9F9"/>
</svg>
