<svg width="20" height="20" viewBox="0 0 20 20" fill="none" xmlns="http://www.w3.org/2000/svg">
<g id="Group 1000004716">
<path id="Vector" d="M11.2152 8.78418H8.78516V11.2142H11.2152V8.78418Z" fill="#F9F9F9"/>
<path id="Vector_2" d="M20 5L15 0H0V15L5 20H20V5ZM8.784 17.764V12.934L5.37 16.35L5 15.98L4.018 15L3.65 14.63L5 13.28L7.064 11.216H2.234V8.784H7.066L3.65 5.368L4.018 5L5 4.02L5.37 3.65L8.784 7.066V2.236H11.214V7.066L14.63 3.65L15 4.018L15.982 5L16.35 5.368L12.934 8.784H17.764V11.216H12.934L16.35 14.63L15.98 15L15 15.982L14.63 16.35L11.214 12.934V17.764H8.784Z" fill="#F9F9F9"/>
</g>
</svg>
